<?xml version="1.0" encoding="iso-8859-1"?>
<!-- Generator: Adobe Illustrator 19.0.0, SVG Export Plug-In . SVG Version: 6.00 Build 0)  -->
<svg xmlns="http://www.w3.org/2000/svg" xmlns:xlink="http://www.w3.org/1999/xlink" version="1.1" id="Capa_1" x="0px" y="0px" viewBox="0 0 512 512" style="enable-background:new 0 0 512 512;" xml:space="preserve">
<g>
	<g>
		<path d="M497,150.999H239.998v-75c0-12.79-15.052-19.713-24.762-11.389L5.235,244.61c-6.977,5.979-6.983,16.793,0,22.777    l210.001,180.001c9.701,8.317,24.762,1.427,24.762-11.389v-75H497c8.284,0,15-6.716,15-15V165.998    C512,157.714,505.284,150.999,497,150.999z M482,331H224.998c-8.284,0-15,6.716-15,15v57.387L38.046,256l171.952-147.388v57.387    c0,8.284,6.716,15,15,15H482V331z"/>
	</g>
</g>
<g>
</g>
<g>
</g>
<g>
</g>
<g>
</g>
<g>
</g>
<g>
</g>
<g>
</g>
<g>
</g>
<g>
</g>
<g>
</g>
<g>
</g>
<g>
</g>
<g>
</g>
<g>
</g>
<g>
</g>
</svg>
