<?xml version="1.0" encoding="iso-8859-1"?>
<!-- Generator: Adobe Illustrator 19.0.0, SVG Export Plug-In . SVG Version: 6.00 Build 0)  -->
<svg xmlns="http://www.w3.org/2000/svg" xmlns:xlink="http://www.w3.org/1999/xlink" version="1.1" id="Capa_1" x="0px" y="0px" viewBox="0 0 512 512" style="enable-background:new 0 0 512 512;" xml:space="preserve">
<g>
	<g>
		<path d="M418.46,185.322l-152-180C263.609,1.947,259.417,0,255,0c-0.016,0-0.032,0-0.049,0c-4.435,0.015-8.636,1.991-11.475,5.397    l-150,180C85.345,195.156,92.319,210,105,210h75v167c0,8.284,6.716,15,15,15h122c8.284,0,15-6.716,15-15V210h75    C419.73,210,426.683,195.061,418.46,185.322z M317,180c-8.284,0-15,6.716-15,15v167h-92V195c0-8.284-6.716-15-15-15h-57.975    L255.076,38.339L374.7,180H317z"/>
	</g>
</g>
<g>
	<g>
		<path d="M497,302h-60c-8.284,0-15,6.716-15,15v105H90V317c0-8.284-6.716-15-15-15H15c-8.284,0-15,6.716-15,15v150    c0,24.813,20.187,45,45,45h422c24.813,0,45-20.187,45-45V317C512,308.716,505.284,302,497,302z M482,467c0,8.271-6.729,15-15,15    H45c-8.271,0-15-6.729-15-15V332h30v105c0,8.284,6.716,15,15,15h362c8.284,0,15-6.716,15-15V332h30V467z"/>
	</g>
</g>
<g>
</g>
<g>
</g>
<g>
</g>
<g>
</g>
<g>
</g>
<g>
</g>
<g>
</g>
<g>
</g>
<g>
</g>
<g>
</g>
<g>
</g>
<g>
</g>
<g>
</g>
<g>
</g>
<g>
</g>
</svg>
