<?xml version="1.0" encoding="iso-8859-1"?>
<!-- Generator: Adobe Illustrator 19.0.0, SVG Export Plug-In . SVG Version: 6.00 Build 0)  -->
<svg xmlns="http://www.w3.org/2000/svg" xmlns:xlink="http://www.w3.org/1999/xlink" version="1.1" id="Capa_1" x="0px" y="0px" viewBox="0 0 512 512" style="enable-background:new 0 0 512 512;" xml:space="preserve">
<g>
	<g>
		<path d="M256.001,122.286c-24.81,0-44.994,20.185-44.994,44.994v89.989c0,24.81,20.184,44.994,44.994,44.994    c24.81,0,44.995-20.185,44.995-44.994v-89.989C300.995,142.471,280.811,122.286,256.001,122.286z M270.999,257.27    c0,8.27-6.728,14.998-14.998,14.998c-8.27,0-14.998-6.728-14.998-14.998v-89.989c0-8.27,6.728-14.998,14.998-14.998    c8.27,0,14.998,6.728,14.998,14.998V257.27z"/>
	</g>
</g>
<g>
	<g>
		<path d="M256.591,332.261c-24.81,0-44.994,20.185-44.994,44.994s20.185,44.994,44.994,44.994s44.994-20.185,44.994-44.994    S281.402,332.261,256.591,332.261z M256.591,392.253c-8.27,0-14.998-6.728-14.998-14.998s6.728-14.998,14.998-14.998    c8.27,0,14.998,6.728,14.998,14.998S264.862,392.253,256.591,392.253z"/>
	</g>
</g>
<g>
	<g>
		<path d="M503.391,391.45L308.106,59.009c-0.023-0.04-0.047-0.08-0.071-0.12c-23.243-38.742-79.508-38.968-102.936,0.086    L8.622,391.431c-23.947,39.991,4.813,90.811,51.472,90.811h391.813C498.576,482.242,527.309,431.425,503.391,391.45z     M451.907,452.246H60.094c-23.321,0-37.729-25.417-25.722-45.429c0.018-0.028,0.034-0.057,0.051-0.086L230.87,74.321    c11.637-19.395,39.731-19.426,51.409-0.056l195.279,332.431c0.023,0.04,0.047,0.08,0.071,0.12    C489.628,426.814,475.245,452.246,451.907,452.246z"/>
	</g>
</g>
<g>
</g>
<g>
</g>
<g>
</g>
<g>
</g>
<g>
</g>
<g>
</g>
<g>
</g>
<g>
</g>
<g>
</g>
<g>
</g>
<g>
</g>
<g>
</g>
<g>
</g>
<g>
</g>
<g>
</g>
</svg>
