<?xml version="1.0" encoding="iso-8859-1"?>
<!-- Generator: Adobe Illustrator 19.0.0, SVG Export Plug-In . SVG Version: 6.00 Build 0)  -->
<svg xmlns="http://www.w3.org/2000/svg" xmlns:xlink="http://www.w3.org/1999/xlink" version="1.1" id="Capa_1" x="0px" y="0px" viewBox="0 0 512 512" style="enable-background:new 0 0 512 512;" xml:space="preserve">
<g>
	<g>
		<path d="M226.817,164.123l-79.864-79.864l58.653-58.653C215.013,16.201,208.355,0,195,0H15C6.716,0,0,6.716,0,15v180    c0,13.302,16.165,20.051,25.606,10.606l57.712-57.712l79.864,79.864c5.857,5.858,15.356,5.858,21.213,0l42.422-42.422    C232.675,179.478,232.675,169.981,226.817,164.123z M173.789,195.938l-79.864-79.864c-5.853-5.854-15.357-5.857-21.213,0    L30,158.787V30h128.786l-43.652,43.653c-5.853,5.852-5.858,15.356,0,21.213l79.864,79.864L173.789,195.938z"/>
	</g>
</g>
<g>
	<g>
		<path d="M226.817,328.546l-42.421-42.422c-5.857-5.858-15.355-5.858-21.213,0L84.26,365.046l-58.653-58.652    C16.201,296.984,0,303.645,0,317v180c0,8.284,6.716,15,15,15h180c13.303,0,20.05-16.163,10.606-25.606l-57.712-57.712    l78.923-78.923C232.675,343.901,232.675,334.404,226.817,328.546z M116.075,418.075c-5.858,5.858-5.858,15.355,0,21.213    l42.712,42.912H30V353.213l43.653,43.653c5.857,5.858,15.355,5.858,21.213,0l78.923-78.922l21.209,21.208L116.075,418.075z"/>
	</g>
</g>
<g>
	<g>
		<path d="M486.394,306.394l-58.653,58.652l-78.923-78.922c-5.857-5.858-15.355-5.858-21.213,0l-42.422,42.422    c-5.858,5.858-5.858,15.355,0,21.213l78.923,78.923l-57.712,57.712C296.987,495.8,303.645,512,317,512h180c8.284,0,15-6.716,15-15    V317C512,303.697,495.837,296.95,486.394,306.394z M482,482.2H353.213l42.712-42.912c5.858-5.858,5.858-15.355,0-21.213    l-78.923-78.923l21.209-21.208l78.923,78.922c5.857,5.858,15.355,5.858,21.213,0L482,353.213V482.2z"/>
	</g>
</g>
<g>
	<g>
		<path d="M497,0H317c-13.302,0-20.051,16.163-10.606,25.606l58.653,58.653l-79.864,79.864c-5.858,5.858-5.858,15.355,0,21.213    l42.422,42.422c5.857,5.858,15.356,5.858,21.213,0l79.864-79.864l57.712,57.712C495.819,215.035,512,208.333,512,195V15    C512,6.716,505.284,0,497,0z M482,158.787l-42.712-42.712c-5.853-5.854-15.357-5.857-21.213,0l-79.864,79.864l-21.209-21.208    l79.864-79.864c5.853-5.852,5.858-15.356,0-21.213L353.214,30H482V158.787z"/>
	</g>
</g>
<g>
</g>
<g>
</g>
<g>
</g>
<g>
</g>
<g>
</g>
<g>
</g>
<g>
</g>
<g>
</g>
<g>
</g>
<g>
</g>
<g>
</g>
<g>
</g>
<g>
</g>
<g>
</g>
<g>
</g>
</svg>
