<?xml version="1.0" encoding="iso-8859-1"?>
<!-- Generator: Adobe Illustrator 19.0.0, SVG Export Plug-In . SVG Version: 6.00 Build 0)  -->
<svg xmlns="http://www.w3.org/2000/svg" xmlns:xlink="http://www.w3.org/1999/xlink" version="1.1" id="Capa_1" x="0px" y="0px" viewBox="0 0 512 512" style="enable-background:new 0 0 512 512;" xml:space="preserve">
<g>
	<g>
		<path d="M346.981,239.98h-76.984V135.002c0-8.282-6.715-14.997-14.997-14.997c-8.282,0-14.997,6.715-14.997,14.997v119.975    c0,8.276,6.715,14.997,14.997,14.997h91.981c8.282,0,14.997-6.715,14.997-14.997C361.978,246.695,355.263,239.98,346.981,239.98z"/>
	</g>
</g>
<g>
	<g>
		<path d="M356.243,20.091C247.792-25.809,116.493,8.166,45.961,109.444L24.049,93.011c-9.895-7.418-23.995-0.301-23.995,11.997    v149.968c0,11.16,11.773,18.382,21.703,13.413l119.975-59.987c9.967-4.983,11.192-18.737,2.292-25.411l-25.609-19.207    c49.118-74.55,139.44-87.606,202.786-60.827c61.212,25.916,100.764,85.588,100.764,152.019    c0,66.619-40.498,128.514-100.774,154.017c-61.987,26.22-135.465,12.008-182.84-35.368c-15.149-15.15-27.049-32.795-35.363-52.43    c-9.645-22.865-36.021-33.607-58.945-23.935c-22.924,9.68-33.619,36.075-23.932,58.942c12.81,30.347,31.185,57.614,54.617,81.045    c74.184,74.185,186.883,94.683,281.497,54.617c91.514-38.631,155.72-131.165,155.72-236.888    C511.946,152.237,450.829,60.038,356.243,20.091z M344.546,464.239c-84.178,35.647-184.101,16.306-248.607-48.2    c-20.682-20.682-36.895-44.738-48.201-71.519c-3.226-7.614,0.34-16.405,7.971-19.627c7.482-3.159,16.379,0.218,19.653,7.978    c9.832,23.223,23.89,44.071,41.781,61.962c55.921,55.921,142.62,72.711,215.734,41.783    c70.831-29.97,119.081-101.6,119.081-181.641c0-78.503-46.735-149.016-119.071-179.642    c-87.977-37.19-196.474-6.172-247.434,84.975c-3.664,6.555-1.916,14.81,4.092,19.316l17.069,12.802l-76.568,38.284v-95.71    l10.748,8.061c7.099,5.323,17.248,3.347,21.834-4.242C120.354,43.285,241.556,4.119,344.563,47.717    c0.004,0.001,0.007,0.003,0.011,0.005c83.455,35.247,137.379,116.599,137.379,207.256    C481.953,345.449,426.74,429.542,344.546,464.239z"/>
	</g>
</g>
<g>
</g>
<g>
</g>
<g>
</g>
<g>
</g>
<g>
</g>
<g>
</g>
<g>
</g>
<g>
</g>
<g>
</g>
<g>
</g>
<g>
</g>
<g>
</g>
<g>
</g>
<g>
</g>
<g>
</g>
</svg>
