<?xml version="1.0" encoding="iso-8859-1"?>
<!-- Generator: Adobe Illustrator 19.0.0, SVG Export Plug-In . SVG Version: 6.00 Build 0)  -->
<svg xmlns="http://www.w3.org/2000/svg" xmlns:xlink="http://www.w3.org/1999/xlink" version="1.1" id="Capa_1" x="0px" y="0px" viewBox="0 0 512 512" style="enable-background:new 0 0 512 512;" xml:space="preserve">
<g>
	<g>
		<path d="M506.762,244.611l-210-180c-4.447-3.812-10.708-4.688-16.029-2.239C275.41,64.82,272,70.142,272,76v75H15    c-8.284,0-15,6.716-15,15v180c0,8.284,6.716,15,15,15h257v75c0,5.858,3.41,11.18,8.732,13.628    c2.004,0.922,4.141,1.373,6.265,1.373c3.515,0,6.992-1.235,9.765-3.611l210-180c3.325-2.85,5.238-7.01,5.238-11.389    C512,251.621,510.087,247.461,506.762,244.611z M302,403.387V346c0-8.284-6.716-15-15-15H30V181h257c8.284,0,15-6.716,15-15    v-57.387L473.951,256L302,403.387z"/>
	</g>
</g>
<g>
</g>
<g>
</g>
<g>
</g>
<g>
</g>
<g>
</g>
<g>
</g>
<g>
</g>
<g>
</g>
<g>
</g>
<g>
</g>
<g>
</g>
<g>
</g>
<g>
</g>
<g>
</g>
<g>
</g>
</svg>
