<?xml version="1.0" encoding="iso-8859-1"?>
<!-- Generator: Adobe Illustrator 19.0.0, SVG Export Plug-In . SVG Version: 6.00 Build 0)  -->
<svg xmlns="http://www.w3.org/2000/svg" xmlns:xlink="http://www.w3.org/1999/xlink" version="1.1" id="Capa_1" x="0px" y="0px" viewBox="0 0 512 512" style="enable-background:new 0 0 512 512;" xml:space="preserve">
<g>
	<g>
		<path d="M467,0H45C20.187,0,0,20.187,0,45v422c0,24.813,20.187,45,45,45h422c24.813,0,45-20.187,45-45V45    C512,20.187,491.813,0,467,0z M482,467c0,8.271-6.729,15-15,15H45c-8.271,0-15-6.729-15-15V45c0-8.271,6.729-15,15-15h422    c8.271,0,15,6.729,15,15V467z"/>
	</g>
</g>
<g>
	<g>
		<path d="M302,120c-33.084,0-60,26.916-60,60s26.916,60,60,60s60-26.916,60-60S335.084,120,302,120z M302,210    c-16.542,0-30-13.458-30-30s13.458-30,30-30s30,13.458,30,30S318.542,210,302,210z"/>
	</g>
</g>
<g>
	<g>
		<path d="M437,60H75c-8.284,0-15,6.716-15,15c0,10.793,0,354.095,0,362c0,8.284,6.716,15,15,15h362c8.284,0,15-6.716,15-15    c0-17.204,0-347.04,0-362C452,66.716,445.284,60,437,60z M90,422V321.213l75-75L340.787,422H90z M422,422h-38.787l-76-76    L347,306.213l75,75V422z M422,338.787l-64.394-64.394c-5.857-5.858-15.355-5.858-21.213,0L286,324.787L175.606,214.394    c-5.857-5.858-15.355-5.858-21.213,0L90,278.787V90h332V338.787z"/>
	</g>
</g>
<g>
</g>
<g>
</g>
<g>
</g>
<g>
</g>
<g>
</g>
<g>
</g>
<g>
</g>
<g>
</g>
<g>
</g>
<g>
</g>
<g>
</g>
<g>
</g>
<g>
</g>
<g>
</g>
<g>
</g>
</svg>
