<?xml version="1.0" encoding="iso-8859-1"?>
<!-- Generator: Adobe Illustrator 19.0.0, SVG Export Plug-In . SVG Version: 6.00 Build 0)  -->
<svg xmlns="http://www.w3.org/2000/svg" xmlns:xlink="http://www.w3.org/1999/xlink" version="1.1" id="Capa_1" x="0px" y="0px" viewBox="0 0 512 512" style="enable-background:new 0 0 512 512;" xml:space="preserve">
<g>
	<g>
		<path d="M481.225,30.775c-40.935-40.935-107.543-40.934-148.478,0L179.259,184.264c-0.002,0.002-0.003,0.003-0.005,0.005    L30.776,332.747c-41.032,41.032-41.036,107.443,0,148.478c40.934,40.934,107.542,40.937,148.478,0l148.478-148.478    l153.493-153.493C522.258,138.222,522.26,71.811,481.225,30.775z M306.522,311.536L158.043,460.014    c-29.264,29.263-76.841,29.215-106.056,0c-29.307-29.307-29.312-76.745,0-106.056l96.58-96.58    c-0.131,12.313,1.882,24.644,6.043,36.379l-81.411,81.412c-17.544,17.543-17.544,46.09,0,63.634    c17.565,17.564,46.068,17.565,63.633,0c3.267-3.267,143.016-143.016,148.469-148.469c0.003-0.003,0.007-0.006,0.01-0.01    c0.003-0.004,0.006-0.007,0.009-0.01c17.534-17.544,17.531-46.083-0.009-63.624c-3.718-3.718-7.933-6.639-12.43-8.781    l21.968-21.968c4.174,2.767,8.083,5.947,11.673,9.538C335.77,234.727,335.894,282.164,306.522,311.536z M169.41,321.381    c2.966,3.963,6.243,7.765,9.844,11.367c3.57,3.57,7.376,6.842,11.374,9.838l-75.007,75.007c-5.841,5.841-15.372,5.839-21.211,0    c-5.848-5.848-5.848-15.364,0-21.212L169.41,321.381z M242.887,247.902c5.849-5.848,15.365-5.848,21.211,0    c5.848,5.848,5.848,15.364,0.001,21.211c-5.849,5.849-15.363,5.848-21.212,0C237.046,263.27,237.048,253.742,242.887,247.902z     M316.359,174.431l80.022-80.022c5.84-5.841,15.369-5.84,21.21,0c5.841,5.842,5.839,15.371,0,21.211l-80.004,80.004    C331.376,187.355,324.305,180.386,316.359,174.431z M460.014,158.042L358.47,259.586c0.004-0.36,0.013-0.719,0.013-1.079    c0-12.22-2.075-24.121-6.055-35.301l86.375-86.375c17.564-17.564,17.565-46.069,0-63.634c-17.565-17.564-46.068-17.566-63.633,0    L221.676,226.691c-17.564,17.563-17.566,46.069,0,63.634c3.718,3.718,7.933,6.639,12.43,8.781l-21.968,21.968    c-4.174-2.767-8.083-5.947-11.674-9.538c-29.239-29.24-29.239-76.817,0-106.056L353.958,51.986    c29.239-29.239,76.817-29.239,106.056,0C489.322,81.294,489.326,128.732,460.014,158.042z"/>
	</g>
</g>
<g>
</g>
<g>
</g>
<g>
</g>
<g>
</g>
<g>
</g>
<g>
</g>
<g>
</g>
<g>
</g>
<g>
</g>
<g>
</g>
<g>
</g>
<g>
</g>
<g>
</g>
<g>
</g>
<g>
</g>
</svg>
