<?xml version="1.0" encoding="iso-8859-1"?>
<!-- Generator: Adobe Illustrator 19.0.0, SVG Export Plug-In . SVG Version: 6.00 Build 0)  -->
<svg xmlns="http://www.w3.org/2000/svg" xmlns:xlink="http://www.w3.org/1999/xlink" version="1.1" id="Capa_1" x="0px" y="0px" viewBox="0 0 512 512" style="enable-background:new 0 0 512 512;" xml:space="preserve">
<g>
	<g>
		<path d="M407,302c-24.401,0-46.883,8.367-64.731,22.381l-132.295-65.263c0.014-0.705,0.027-1.41,0.027-2.118    c0-0.748-0.013-1.492-0.028-2.236l132.391-67.073C360.196,201.661,382.642,210,407,210c57.897,0,105-47.103,105-105    C512,47.103,464.897,0,407,0c-57.897,0-105,47.103-105,105c0,0.745,0.013,1.488,0.028,2.23l-132.393,67.078    C151.802,160.338,129.357,152,105,152C47.103,152,0,199.103,0,257c0,57.897,47.103,105,105,105    c24.399,0,46.881-8.366,64.729-22.38l132.298,65.268C302.013,405.591,302,406.294,302,407c0,57.897,47.103,105,105,105    c57.897,0,105-47.103,105-105C512,349.103,464.897,302,407,302z M407,30c41.355,0,75,33.645,75,75s-33.645,75-75,75    c-41.355,0-75-33.645-75-75S365.645,30,407,30z M105,332c-41.355,0-75-33.645-75-75s33.645-75,75-75s75,33.645,75,75    S146.355,332,105,332z M307.368,138.155c3.212,9.627,7.784,18.636,13.485,26.803L204.63,223.839    c-3.212-9.626-7.784-18.634-13.485-26.799L307.368,138.155z M307.304,374.04l-116.042-57.249    c5.685-8.176,10.238-17.193,13.432-26.826l116.042,57.245C315.051,355.387,310.497,364.405,307.304,374.04z M407,482    c-41.355,0-75-33.645-75-75c0-41.355,33.645-75,75-75c41.355,0,75,33.645,75,75C482,448.355,448.355,482,407,482z"/>
	</g>
</g>
<g>
</g>
<g>
</g>
<g>
</g>
<g>
</g>
<g>
</g>
<g>
</g>
<g>
</g>
<g>
</g>
<g>
</g>
<g>
</g>
<g>
</g>
<g>
</g>
<g>
</g>
<g>
</g>
<g>
</g>
</svg>
