<?xml version="1.0" encoding="iso-8859-1"?>
<!-- Generator: Adobe Illustrator 19.0.0, SVG Export Plug-In . SVG Version: 6.00 Build 0)  -->
<svg xmlns="http://www.w3.org/2000/svg" xmlns:xlink="http://www.w3.org/1999/xlink" version="1.1" id="Capa_1" x="0px" y="0px" viewBox="0 0 512 512" style="enable-background:new 0 0 512 512;" xml:space="preserve">
<g>
	<g>
		<path d="M486.74,121.142c-5.603-2.321-12.057-1.039-16.347,3.252c-49.564,49.564-102.175,25.201-163.091-3.005    c-45.158-20.91-94.695-43.835-143.11-30.078C165.363,86.056,166,80.603,166,75c0-41.355-33.645-75-75-75S16,33.645,16,75    c0,24.484,11.796,46.262,30,59.959V497c0,8.284,6.716,15,15,15h60c8.284,0,15-6.716,15-15V381.417    c48.281-43.929,99.578-20.18,158.697,7.194c35.635,16.5,73.991,34.263,112.377,34.261c28.533-0.001,57.084-9.818,84.532-37.267    C494.42,382.793,496,378.979,496,375V135C496,128.933,492.346,123.463,486.74,121.142z M106,482H76V148.491    c4.848,0.988,9.864,1.509,15,1.509s10.152-0.521,15-1.509C106,167.406,106,476.698,106,482z M91,120.2    c-24.813,0-45.2-20.387-45.2-45.2S66.187,29.8,91,29.8s45.2,20.387,45.2,45.2S115.813,120.2,91,120.2z M466,368.587    c-48.28,43.932-99.577,20.176-158.697-7.199c-53.976-24.992-114.208-52.869-171.303-17.53v-202.44    c48.281-43.929,99.578-20.181,158.697,7.194c35.635,16.5,73.991,34.263,112.377,34.261c19.756-0.001,39.526-4.71,58.926-16.716    V368.587z"/>
	</g>
</g>
<g>
</g>
<g>
</g>
<g>
</g>
<g>
</g>
<g>
</g>
<g>
</g>
<g>
</g>
<g>
</g>
<g>
</g>
<g>
</g>
<g>
</g>
<g>
</g>
<g>
</g>
<g>
</g>
<g>
</g>
</svg>
