<?xml version="1.0" encoding="iso-8859-1"?>
<!-- Generator: Adobe Illustrator 19.0.0, SVG Export Plug-In . SVG Version: 6.00 Build 0)  -->
<svg xmlns="http://www.w3.org/2000/svg" xmlns:xlink="http://www.w3.org/1999/xlink" version="1.1" id="Capa_1" x="0px" y="0px" viewBox="0 0 512 512" style="enable-background:new 0 0 512 512;" xml:space="preserve">
<g>
	<g>
		<path d="M467,0C448.858,0,65.669,0,45,0C20.187,0,0,20.187,0,45v422c0,24.813,20.187,45,45,45c22.168,0,404.583,0,422,0    c24.813,0,45-20.187,45-45V45C512,20.187,491.813,0,467,0z M90,482H45c-8.271,0-15-6.729-15-15v-15h60V482z M90,422H30v-60h60V422    z M90,332H30v-60h60V332z M90,242H30v-62h60V242z M90,150H30V90h60V150z M90,60H30V45c0-8.271,6.729-15,15-15h45V60z M392,482H120    V272h272V482z M392,242H120V30h272V242z M482,467c0,8.271-6.729,15-15,15h-45v-30h60V467z M482,422h-60v-60h60V422z M482,332h-60    v-60h60V332z M482,242h-60v-62h60V242z M482,150h-60V90h60V150z M482,60h-60V30h45c8.271,0,15,6.729,15,15V60z"/>
	</g>
</g>
<g>
</g>
<g>
</g>
<g>
</g>
<g>
</g>
<g>
</g>
<g>
</g>
<g>
</g>
<g>
</g>
<g>
</g>
<g>
</g>
<g>
</g>
<g>
</g>
<g>
</g>
<g>
</g>
<g>
</g>
</svg>
