<?xml version="1.0" encoding="iso-8859-1"?>
<!-- Generator: Adobe Illustrator 19.0.0, SVG Export Plug-In . SVG Version: 6.00 Build 0)  -->
<svg xmlns="http://www.w3.org/2000/svg" xmlns:xlink="http://www.w3.org/1999/xlink" version="1.1" id="Capa_1" x="0px" y="0px" viewBox="0 0 512 512" style="enable-background:new 0 0 512 512;" xml:space="preserve">
<g>
	<g>
		<path d="M406,90h-17.58c-6.192-17.459-22.865-30-42.42-30h-16.507C322.523,25.809,292.219,0,256,0s-66.523,25.809-73.493,60H166    c-19.555,0-36.228,12.541-42.42,30H106c-24.813,0-45,20.187-45,45v332c0,24.813,20.187,45,45,45h300c24.813,0,45-20.187,45-45V135    C451,110.187,430.813,90,406,90z M151,105c0-8.271,6.729-15,15-15h30c8.284,0,15-6.716,15-15c0-24.813,20.187-45,45-45    s45,20.187,45,45c0,8.284,6.716,15,15,15h30c8.271,0,15,6.729,15,15v15H151V105z M151,150h210v272H151V150z M421,467    c0,8.271-6.729,15-15,15H106c-8.271,0-15-6.729-15-15V135c0-8.271,6.729-15,15-15h15c0,10.472,0,292.576,0,317    c0,8.284,6.716,15,15,15h240c8.284,0,15-6.716,15-15c0-12.745,0-298.762,0-317h15c8.271,0,15,6.729,15,15V467z"/>
	</g>
</g>
<g>
	<g>
		<circle cx="256" cy="75" r="15"/>
	</g>
</g>
<g>
</g>
<g>
</g>
<g>
</g>
<g>
</g>
<g>
</g>
<g>
</g>
<g>
</g>
<g>
</g>
<g>
</g>
<g>
</g>
<g>
</g>
<g>
</g>
<g>
</g>
<g>
</g>
<g>
</g>
</svg>
