<?xml version="1.0" encoding="iso-8859-1"?>
<!-- Generator: Adobe Illustrator 19.0.0, SVG Export Plug-In . SVG Version: 6.00 Build 0)  -->
<svg xmlns="http://www.w3.org/2000/svg" xmlns:xlink="http://www.w3.org/1999/xlink" version="1.1" id="Capa_1" x="0px" y="0px" viewBox="0 0 512 512" style="enable-background:new 0 0 512 512;" xml:space="preserve">
<g>
	<g>
		<path d="M497,210h-90c-8.284,0-15,6.716-15,15v257h-30V135c0-8.284-6.716-15-15-15h-90c-8.284,0-15,6.716-15,15v347h-30V15    c0-8.284-6.716-15-15-15h-90c-8.284,0-15,6.716-15,15v467H30v-30h15c8.284,0,15-6.716,15-15s-6.716-15-15-15H30v-62h15    c8.284,0,15-6.716,15-15s-6.716-15-15-15H30v-60h15c8.284,0,15-6.716,15-15s-6.716-15-15-15H30v-60h15c8.284,0,15-6.716,15-15    s-6.716-15-15-15H30V90h15c8.284,0,15-6.716,15-15s-6.716-15-15-15H30V15c0-8.284-6.716-15-15-15S0,6.716,0,15v482    c0,8.284,6.716,15,15,15c4.491,0,477.532,0,482,0c8.284,0,15-6.716,15-15V225C512,216.716,505.284,210,497,210z M182,482h-60V30    h60V482z M332,482h-60V150h60V482z M482,482h-60V240h60V482z"/>
	</g>
</g>
<g>
</g>
<g>
</g>
<g>
</g>
<g>
</g>
<g>
</g>
<g>
</g>
<g>
</g>
<g>
</g>
<g>
</g>
<g>
</g>
<g>
</g>
<g>
</g>
<g>
</g>
<g>
</g>
<g>
</g>
</svg>
