<?xml version="1.0" encoding="iso-8859-1"?>
<!-- Generator: Adobe Illustrator 19.0.0, SVG Export Plug-In . SVG Version: 6.00 Build 0)  -->
<svg xmlns="http://www.w3.org/2000/svg" xmlns:xlink="http://www.w3.org/1999/xlink" version="1.1" id="Capa_1" x="0px" y="0px" viewBox="0 0 512 512" style="enable-background:new 0 0 512 512;" xml:space="preserve">
<g>
	<g>
		<path d="M347,60H75c-8.284,0-15,6.716-15,15v122c0,8.284,6.716,15,15,15h272c8.284,0,15-6.716,15-15V75    C362,66.716,355.284,60,347,60z M332,182H90V90h242V182z"/>
	</g>
</g>
<g>
	<g>
		<path d="M197,242H75c-8.284,0-15,6.716-15,15s6.716,15,15,15h122c8.284,0,15-6.716,15-15S205.284,242,197,242z"/>
	</g>
</g>
<g>
	<g>
		<path d="M197,302H75c-8.284,0-15,6.716-15,15s6.716,15,15,15h122c8.284,0,15-6.716,15-15S205.284,302,197,302z"/>
	</g>
</g>
<g>
	<g>
		<path d="M197,362H75c-8.284,0-15,6.716-15,15s6.716,15,15,15h122c8.284,0,15-6.716,15-15S205.284,362,197,362z"/>
	</g>
</g>
<g>
	<g>
		<path d="M197,422H75c-8.284,0-15,6.716-15,15s6.716,15,15,15h122c8.284,0,15-6.716,15-15S205.284,422,197,422z"/>
	</g>
</g>
<g>
	<g>
		<path d="M347,362h-90c-8.284,0-15,6.716-15,15v60c0,8.284,6.716,15,15,15h90c8.284,0,15-6.716,15-15v-60    C362,368.716,355.284,362,347,362z M332,422h-60v-30h60V422z"/>
	</g>
</g>
<g>
	<g>
		<path d="M347,242h-90c-8.284,0-15,6.716-15,15s6.716,15,15,15h90c8.284,0,15-6.716,15-15S355.284,242,347,242z"/>
	</g>
</g>
<g>
	<g>
		<path d="M347,302h-90c-8.284,0-15,6.716-15,15s6.716,15,15,15h90c8.284,0,15-6.716,15-15S355.284,302,347,302z"/>
	</g>
</g>
<g>
	<g>
		<path d="M497,60h-75V15c0-8.284-6.716-15-15-15H15C6.716,0,0,6.716,0,15v422c0,41.355,33.645,75,75,75c16.884,0,357.652,0,377,0    c33.084,0,60-26.916,60-60V75C512,66.716,505.284,60,497,60z M75,482c-24.813,0-45-20.187-45-45V30h362v45    c0,12.476,0,358.249,0,377c0,10.925,2.949,21.167,8.072,30C391.338,482,80.409,482,75,482z M482,452c0,16.542-13.458,30-30,30    s-30-13.458-30-30c0-15.186,0-346.815,0-362h60V452z"/>
	</g>
</g>
<g>
</g>
<g>
</g>
<g>
</g>
<g>
</g>
<g>
</g>
<g>
</g>
<g>
</g>
<g>
</g>
<g>
</g>
<g>
</g>
<g>
</g>
<g>
</g>
<g>
</g>
<g>
</g>
<g>
</g>
</svg>
