<?xml version="1.0" encoding="iso-8859-1"?>
<!-- Generator: Adobe Illustrator 19.0.0, SVG Export Plug-In . SVG Version: 6.00 Build 0)  -->
<svg xmlns="http://www.w3.org/2000/svg" xmlns:xlink="http://www.w3.org/1999/xlink" version="1.1" id="Capa_1" x="0px" y="0px" viewBox="0 0 512 512" style="enable-background:new 0 0 512 512;" xml:space="preserve">
<g>
	<g>
		<path d="M507.452,4.666c-0.039-0.039-0.081-0.07-0.12-0.108c-0.055-0.057-0.106-0.118-0.162-0.174    c-4.168-4.163-10.389-5.499-15.898-3.413L9.843,183.174c-5.718,2.165-9.549,7.584-9.681,13.698    c-0.132,6.113,3.462,11.693,9.082,14.101l204.359,87.583l87.583,204.359c2.366,5.521,7.792,9.086,13.777,9.085    c0.111,0,0.224-0.001,0.336-0.004c6.117-0.136,11.537-3.977,13.695-9.702L509.406,23.46    C513.209,17.647,512.559,9.773,507.452,4.666z M55.22,198.058L437.577,53.35L221.596,269.362L55.22,198.058z M314.07,456.867    l-71.273-166.305L457.718,75.608L314.07,456.867z"/>
	</g>
</g>
<g>
</g>
<g>
</g>
<g>
</g>
<g>
</g>
<g>
</g>
<g>
</g>
<g>
</g>
<g>
</g>
<g>
</g>
<g>
</g>
<g>
</g>
<g>
</g>
<g>
</g>
<g>
</g>
<g>
</g>
</svg>
