<?xml version="1.0" encoding="iso-8859-1"?>
<!-- Generator: Adobe Illustrator 19.0.0, SVG Export Plug-In . SVG Version: 6.00 Build 0)  -->
<svg xmlns="http://www.w3.org/2000/svg" xmlns:xlink="http://www.w3.org/1999/xlink" version="1.1" id="Capa_1" x="0px" y="0px" viewBox="0 0 512 512" style="enable-background:new 0 0 512 512;" xml:space="preserve">
<g>
	<g>
		<path d="M496.986,0h-60c-7.408,0-13.707,5.408-14.827,12.731L414.927,60H15.017C5.841,60-1.198,68.184,0.189,77.264    c1.655,10.835,39.753,260.306,41.539,272C42.846,356.589,49.146,362,56.555,362h312.164l-2.644,17.281    c-1.135,7.37-7.369,12.719-14.826,12.719H66.986c-8.284,0-15,6.716-15,15c0,6.091,3.637,11.323,8.852,13.672    c-5.609,9.125-8.852,19.854-8.852,31.328c0,33.084,26.916,60,60,60c33.084,0,60-26.916,60-60c0-10.925-2.949-21.167-8.072-30    h86.144c-5.123,8.833-8.072,19.075-8.072,30c0,33.084,26.916,60,60,60s60-26.916,60-60c0-10.959-2.967-21.231-8.12-30.083    c21.196-1.197,38.591-16.834,41.861-38.087c0.603-3.942,53.557-350.024,54.139-353.83h47.12c8.284,0,15-6.716,15-15    S505.27,0,496.986,0z M111.986,482c-16.542,0-30-13.458-30-30s13.458-30,30-30c16.542,0,30,13.458,30,30S128.528,482,111.986,482z     M301.986,482c-16.542,0-30-13.458-30-30s13.458-30,30-30s30,13.458,30,30S318.528,482,301.986,482z M141.986,332H69.439    l-9.163-60h81.71V332z M141.986,242H55.694l-9.468-62h95.76V242z M141.986,150H41.645l-9.163-60h109.504V150z M271.986,332h-100    v-60h100V332z M271.986,242h-100v-62h100V242z M271.986,150h-100V90h100V150z M373.309,332h-71.323v-60h80.503L373.309,332z     M387.08,242h-85.094v-62h94.58L387.08,242z M401.156,150h-99.17V90h108.35L401.156,150z"/>
	</g>
</g>
<g>
</g>
<g>
</g>
<g>
</g>
<g>
</g>
<g>
</g>
<g>
</g>
<g>
</g>
<g>
</g>
<g>
</g>
<g>
</g>
<g>
</g>
<g>
</g>
<g>
</g>
<g>
</g>
<g>
</g>
</svg>
