<?xml version="1.0" encoding="iso-8859-1"?>
<!-- Generator: Adobe Illustrator 19.0.0, SVG Export Plug-In . SVG Version: 6.00 Build 0)  -->
<svg xmlns="http://www.w3.org/2000/svg" xmlns:xlink="http://www.w3.org/1999/xlink" version="1.1" id="Capa_1" x="0px" y="0px" viewBox="0 0 512 512" style="enable-background:new 0 0 512 512;" xml:space="preserve">
<g>
	<g>
		<path d="M257,0C117.105,0,0,113.025,0,255c0,140.644,115.914,257,257,257c142.13,0,255-117.257,255-257C512,114.06,397.95,0,257,0    z M257,482.2C131.832,482.2,29.8,380.168,29.8,255C29.8,130.935,131.832,29.8,257,29.8c124.065,0,225.2,101.135,225.2,225.2    C482.2,380.168,381.065,482.2,257,482.2z"/>
	</g>
</g>
<g>
	<g>
		<path d="M257,60c-24.813,0-45,20.187-45,45v150c0,24.813,20.187,45,45,45s45-20.187,45-45V105C302,80.187,281.813,60,257,60z     M272,255c0,8.271-6.729,15-15,15s-15-6.729-15-15V105c0-8.271,6.729-15,15-15s15,6.729,15,15V255z"/>
	</g>
</g>
<g>
	<g>
		<path d="M394.901,117.113c-17.531-17.531-46.078-17.542-63.649-0.015c-17.542,17.541-17.551,46.091-0.015,63.649    C351.075,200.586,362.2,226.956,362.2,255c0,57.405-42.54,106.054-106.204,106.054C193.317,361.054,149.8,313.39,149.8,255    c0-28.044,11.125-54.414,30.97-74.258c17.53-17.552,17.52-46.102-0.035-63.656c-17.559-17.516-46.106-17.502-63.641,0.032    C80.276,153.967,60,202.935,60,255c0,110.075,86.796,197,197,197c109.311,0,195-88.506,195-197    C452,202.935,431.724,153.967,394.901,117.113z M257,422.2c-93.309,0-167.2-73.346-167.2-167.2    c0-44.057,17.359-85.494,48.512-116.674c5.849-5.848,15.375-5.848,21.224-0.015c5.852,5.852,5.855,15.375,0.015,21.224    C134.046,185.039,120,218.942,120,255c0,74.55,56.376,135.854,135.996,135.854C335.281,390.854,392,329.866,392,255    c0-36.058-14.046-69.961-39.543-95.458c-5.847-5.854-5.844-15.378-0.005-21.217c5.861-5.847,15.388-5.847,21.232-0.003    C404.841,169.506,422.2,210.943,422.2,255C422.2,347.607,349.074,422.2,257,422.2z"/>
	</g>
</g>
<g>
</g>
<g>
</g>
<g>
</g>
<g>
</g>
<g>
</g>
<g>
</g>
<g>
</g>
<g>
</g>
<g>
</g>
<g>
</g>
<g>
</g>
<g>
</g>
<g>
</g>
<g>
</g>
<g>
</g>
</svg>
