<?xml version="1.0" encoding="iso-8859-1"?>
<!-- Generator: Adobe Illustrator 19.0.0, SVG Export Plug-In . SVG Version: 6.00 Build 0)  -->
<svg xmlns="http://www.w3.org/2000/svg" xmlns:xlink="http://www.w3.org/1999/xlink" version="1.1" id="Capa_1" x="0px" y="0px" viewBox="0 0 512.001 512.001" style="enable-background:new 0 0 512.001 512.001;" xml:space="preserve">
<g>
	<g>
		<path d="M405.993,0L166.029,0.117l-60-0.117c-0.01,0-0.02,0-0.03,0C64.644,0,31,33.645,31,75v90c0,8.284,6.716,15,15,15h105v317    c0,5.404,2.907,10.391,7.609,13.053c4.702,2.662,10.473,2.59,15.108-0.191L316,424.493l142.283,85.37    c4.644,2.786,10.414,2.848,15.108,0.191c4.702-2.663,7.609-7.65,7.609-13.054V75C481,33.645,447.355,0,405.993,0z M151,150H61V75    c0-24.812,20.186-44.999,44.998-45h0.005C130.814,30.001,151,50.188,151,75V150z M451,470.507l-127.283-76.37    c-4.75-2.851-10.685-2.851-15.435,0L181,470.507V165V75c0-16.818-5.565-32.36-14.949-44.883L406,30c24.813,0,45,20.187,45,45    V470.507z"/>
	</g>
</g>
<g>
	<g>
		<path d="M404.557,198.574l-51.896-7.541l-23.209-47.027c-5.489-11.123-21.408-11.133-26.902,0l-23.209,47.027l-51.896,7.541    c-12.276,1.784-17.203,16.92-8.313,25.585l37.553,36.605l-8.865,51.687c-2.097,12.225,10.776,21.59,21.764,15.813L316,303.861    l46.418,24.403c10.984,5.774,23.862-3.581,21.764-15.813l-8.865-51.687l37.553-36.605    C421.753,215.5,416.842,200.359,404.557,198.574z M348.73,244.787c-3.535,3.446-5.148,8.411-4.314,13.277l5.06,29.504    l-26.496-13.93c-4.369-2.297-9.59-2.298-13.96,0l-26.496,13.93l5.06-29.504c0.834-4.866-0.779-9.831-4.314-13.277l-21.436-20.895    l29.623-4.304c4.886-0.71,9.109-3.779,11.294-8.206L316,184.538l13.248,26.844c2.185,4.427,6.409,7.496,11.294,8.206l29.623,4.304    L348.73,244.787z"/>
	</g>
</g>
<g>
</g>
<g>
</g>
<g>
</g>
<g>
</g>
<g>
</g>
<g>
</g>
<g>
</g>
<g>
</g>
<g>
</g>
<g>
</g>
<g>
</g>
<g>
</g>
<g>
</g>
<g>
</g>
<g>
</g>
</svg>
