<?xml version="1.0" encoding="iso-8859-1"?>
<!-- Generator: Adobe Illustrator 19.0.0, SVG Export Plug-In . SVG Version: 6.00 Build 0)  -->
<svg xmlns="http://www.w3.org/2000/svg" xmlns:xlink="http://www.w3.org/1999/xlink" version="1.1" id="Capa_1" x="0px" y="0px" viewBox="0 0 511.999 511.999" style="enable-background:new 0 0 511.999 511.999;" xml:space="preserve">
<g>
	<g>
		<path d="M476.827,231.049c-22.932-22.933-54.381-36.214-88.925-35.07c-15.3-68.671-81.333-119.869-160.912-119.869    c-102.471,0-175.032,82.048-166.405,159.661c-32.458,15.215-55.904,46.561-59.952,83.655c-0.004,0.032-0.008,0.065-0.011,0.097    c-6.737,62.266,42.176,116.365,104.375,116.365h286.984c0,0,0,0,0.001,0c32.05-0.001,62.182-12.482,84.845-35.145    C523.722,353.849,523.726,277.948,476.827,231.049z M455.614,379.532c-16.997,16.998-39.597,26.559-63.635,26.559H104.997    c-45.139,0-80.336-40.02-74.313-85.162c5.139-38.014,38.622-65.029,74.313-65.029c8.284,0,14.999-6.716,14.999-14.999    c0-8.283-6.716-14.999-14.999-14.999c-5.085,0-10.083,0.371-14.977,1.073c-0.008-0.358-0.022-0.717-0.022-1.073    c0-66.164,61.454-119.993,136.991-119.993c64.171,0,118.142,39.894,131.234,94.791c-19.111,5.571-36.625,15.881-51.092,30.348    c-5.857,5.858-5.857,15.354,0,21.212c5.858,5.858,15.354,5.858,21.212,0c34.918-34.919,91.869-35.403,127.271,0    C490.786,287.433,490.788,344.357,455.614,379.532z"/>
	</g>
</g>
<g>
</g>
<g>
</g>
<g>
</g>
<g>
</g>
<g>
</g>
<g>
</g>
<g>
</g>
<g>
</g>
<g>
</g>
<g>
</g>
<g>
</g>
<g>
</g>
<g>
</g>
<g>
</g>
<g>
</g>
</svg>
