<?xml version="1.0" encoding="iso-8859-1"?>
<!-- Generator: Adobe Illustrator 19.0.0, SVG Export Plug-In . SVG Version: 6.00 Build 0)  -->
<svg xmlns="http://www.w3.org/2000/svg" xmlns:xlink="http://www.w3.org/1999/xlink" version="1.1" id="Capa_1" x="0px" y="0px" viewBox="0 0 512 512" style="enable-background:new 0 0 512 512;" xml:space="preserve">
<g>
	<g>
		<path d="M485.678,26.322c-35.096-35.096-92.201-35.096-127.297,0L66.189,318.514c-0.39,0.382-0.76,0.789-1.109,1.216    c-2.396,2.926,1.375-5.043-62.806,150.828c-4.627,11.237-2.064,24.048,6.528,32.641c8.599,8.6,21.414,11.151,32.641,6.528    c154.571-63.647,148.869-60.672,152.044-63.916l292.193-292.193C520.774,118.523,520.774,61.418,485.678,26.322z M30.017,481.983    l14.851-36.068l21.217,21.217L30.017,481.983z M96.141,454.756L57.244,415.86l24.752-60.113l74.257,74.257L96.141,454.756z     M182.774,414.092l-84.866-84.866l196.824-196.824l84.865,84.865L182.774,414.092z M400.814,196.051l-84.865-84.865l21.217-21.217    l84.865,84.866L400.814,196.051z M464.463,132.404l-21.216,21.216l-84.865-84.865l21.216-21.216    c23.398-23.398,61.468-23.397,84.866,0C487.859,70.936,487.859,109.006,464.463,132.404z"/>
	</g>
</g>
<g>
</g>
<g>
</g>
<g>
</g>
<g>
</g>
<g>
</g>
<g>
</g>
<g>
</g>
<g>
</g>
<g>
</g>
<g>
</g>
<g>
</g>
<g>
</g>
<g>
</g>
<g>
</g>
<g>
</g>
</svg>
