<?xml version="1.0" encoding="iso-8859-1"?>
<!-- Generator: Adobe Illustrator 19.0.0, SVG Export Plug-In . SVG Version: 6.00 Build 0)  -->
<svg xmlns="http://www.w3.org/2000/svg" xmlns:xlink="http://www.w3.org/1999/xlink" version="1.1" id="Capa_1" x="0px" y="0px" viewBox="0 0 512 512" style="enable-background:new 0 0 512 512;" xml:space="preserve">
<g>
	<g>
		<path d="M257,0C117.105,0,0,113.025,0,255c0,140.808,116.101,257,257,257c142.13,0,255-117.257,255-257C512,114.06,397.95,0,257,0    z M257,482.2C131.832,482.2,29.8,380.168,29.8,255C29.8,130.935,131.832,29.8,257,29.8c124.065,0,225.2,101.135,225.2,225.2    C482.2,380.168,381.065,482.2,257,482.2z"/>
	</g>
</g>
<g>
	<g>
		<path d="M257,362c-24.813,0-45,20.187-45,45s20.187,45,45,45s45-20.187,45-45S281.813,362,257,362z M257,422    c-8.271,0-15-6.729-15-15s6.729-15,15-15s15,6.729,15,15S265.271,422,257,422z"/>
	</g>
</g>
<g>
	<g>
		<path d="M257,60c-57.897,0-105,47.103-105,105c0,24.813,20.187,45,45,45s45-20.187,45-45c0-8.271,6.729-15,15-15    c14.43,0,20.529,18.557,8.847,27.127C231.626,202.189,212,238.635,212,277.119V285c0,24.813,20.187,45,45,45s45-20.187,45-45    v-7.881c0-12.959,10.684-22.74,17.043-27.41C345.941,229.988,362,198.321,362,165C362,107.103,314.897,60,257,60z     M301.295,225.522C290.354,233.557,272,250.943,272,277.119V285c0,8.271-6.729,15-15,15s-15-6.729-15-15v-7.881    c0-28.816,15.153-56.44,41.583-75.796C295.287,192.737,302,179.498,302,165c0-24.813-20.187-45-45-45s-45,20.187-45,45    c0,8.271-6.729,15-15,15s-15-6.729-15-15c0-41.355,33.645-75.2,75-75.2s75,33.845,75,75.2    C332,188.801,320.525,211.423,301.295,225.522z"/>
	</g>
</g>
<g>
</g>
<g>
</g>
<g>
</g>
<g>
</g>
<g>
</g>
<g>
</g>
<g>
</g>
<g>
</g>
<g>
</g>
<g>
</g>
<g>
</g>
<g>
</g>
<g>
</g>
<g>
</g>
<g>
</g>
</svg>
