<?xml version="1.0" encoding="iso-8859-1"?>
<!-- Generator: Adobe Illustrator 19.0.0, SVG Export Plug-In . SVG Version: 6.00 Build 0)  -->
<svg xmlns="http://www.w3.org/2000/svg" xmlns:xlink="http://www.w3.org/1999/xlink" version="1.1" id="Capa_1" x="0px" y="0px" viewBox="0 0 512 512" style="enable-background:new 0 0 512 512;" xml:space="preserve">
<g>
	<g>
		<path d="M105,106c-24.393,0-45,20.607-45,45s20.607,45,45,45s45-20.607,45-45S129.393,106,105,106z M105,166    c-7.991,0-15-7.009-15-15c0-7.991,7.009-15,15-15c7.991,0,15,7.009,15,15C120,158.991,112.991,166,105,166z"/>
	</g>
</g>
<g>
	<g>
		<path d="M504.426,242.967c-4.683-2.668-10.437-2.619-15.073,0.128L422,283.009V271c0-23.443-18.022-42.746-40.937-44.808    C406.14,204.182,422,171.91,422,136c0-66.168-53.832-120-120-120c-32.103,0-62.543,12.434-85.714,35.01    c-11.448,11.154-20.371,24.079-26.508,38.117C170.659,63.002,139.78,46,105,46C47.103,46,0,93.103,0,151    c0,30.168,12.794,57.401,33.235,76.571C14.111,232.757,0,250.258,0,271v180c0,24.813,20.187,45,45,45h332    c24.813,0,45-20.187,45-45v-12.009l67.353,39.913c4.633,2.746,10.387,2.799,15.073,0.128C509.109,476.365,512,471.39,512,466V256    C512,250.61,509.109,245.635,504.426,242.967z M302,46c49.626,0,90,40.374,90,90s-40.374,90-90,90c-49.869,0-92-41.215-92-90    C210,87.215,252.131,46,302,46z M198.372,198.994c5.016,7.879,11.002,15.262,17.913,21.996c1.779,1.732,3.605,3.398,5.466,5.01    h-43.348C186.415,218.156,193.183,209.047,198.372,198.994z M30,151c0-41.355,33.645-75,75-75s75,33.645,75,75s-33.645,75-75,75    S30,192.355,30,151z M392,451c0,8.271-6.729,15-15,15H45c-8.271,0-15-6.729-15-15V271c0-8.271,6.729-15,15-15h332    c8.271,0,15,6.729,15,15V451z M482,439.675l-60-35.556V317.88l60-35.556V439.675z"/>
	</g>
</g>
<g>
	<g>
		<path d="M302,76c-33.084,0-60,26.916-60,60s26.916,60,60,60s60-26.916,60-60S335.084,76,302,76z M302,166    c-16.542,0-30-13.458-30-30s13.458-30,30-30s30,13.458,30,30S318.542,166,302,166z"/>
	</g>
</g>
<g>
</g>
<g>
</g>
<g>
</g>
<g>
</g>
<g>
</g>
<g>
</g>
<g>
</g>
<g>
</g>
<g>
</g>
<g>
</g>
<g>
</g>
<g>
</g>
<g>
</g>
<g>
</g>
<g>
</g>
</svg>
