<?xml version="1.0" encoding="iso-8859-1"?>
<!-- Generator: Adobe Illustrator 19.0.0, SVG Export Plug-In . SVG Version: 6.00 Build 0)  -->
<svg xmlns="http://www.w3.org/2000/svg" xmlns:xlink="http://www.w3.org/1999/xlink" version="1.1" id="Capa_1" x="0px" y="0px" viewBox="0 0 512 512" style="enable-background:new 0 0 512 512;" xml:space="preserve">
<g>
	<g>
		<path d="M132.979,270.997h-15.196v-14.996c0-8.282-6.514-14.996-14.796-14.996s-14.996,6.714-14.996,14.996v14.996H75.849    c-8.282,0-14.996,6.714-14.996,14.996c0,8.282,6.714,14.796,14.996,14.796h12.142v15.196c0,8.282,6.714,14.996,14.996,14.996    s14.796-6.714,14.796-14.996v-15.196h15.196c8.282,0,14.996-6.514,14.996-14.796C147.975,277.711,141.26,270.997,132.979,270.997z    "/>
	</g>
</g>
<g>
	<g>
		<circle cx="406.162" cy="256.002" r="14.996"/>
	</g>
</g>
<g>
	<g>
		<circle cx="436.154" cy="285.994" r="14.996"/>
	</g>
</g>
<g>
	<g>
		<circle cx="406.162" cy="315.986" r="14.996"/>
	</g>
</g>
<g>
	<g>
		<circle cx="376.17" cy="285.994" r="14.996"/>
	</g>
</g>
<g>
	<g>
		<path d="M225.809,270.997h-29.992c-8.282,0-14.996,6.714-14.996,14.996c0,8.282,6.714,14.796,14.996,14.796h29.992    c8.282,0,14.996-6.514,14.996-14.796C240.805,277.711,234.091,270.997,225.809,270.997z"/>
	</g>
</g>
<g>
	<g>
		<path d="M316.184,270.997h-29.992c-8.282,0-14.996,6.714-14.996,14.996c0,8.282,6.714,14.796,14.996,14.796h29.992    c8.282,0,14.996-6.514,14.996-14.796C331.18,277.711,324.466,270.997,316.184,270.997z"/>
	</g>
</g>
<g>
	<g>
		<path d="M511.58,362.943c-2.621-68.049-17.222-139.175-28.749-168.725c-11.124-28.552-43.872-43.42-74.552-33.849    c-28.651,8.939-67.632,15.211-110.435,17.676v-42.755c0-8.282-6.514-15.196-14.796-15.196h-15.196V60.111    c0-16.258,14.606-29.992,31.659-29.992c16.538,0,29.992,13.454,29.992,29.992c0,33.075,26.909,59.984,59.984,59.984    s59.984-26.909,59.984-59.984c0-16.538,13.454-29.992,29.992-29.992h14.996c8.282,0,14.996-6.714,14.996-14.996    c0-8.282-6.714-14.996-14.996-14.996h-14.996c-33.075,0-59.984,26.909-59.984,59.984c0,16.538-13.454,29.992-29.992,29.992    c-16.538,0-29.992-13.454-29.992-29.992c0-33.075-26.909-59.984-59.984-59.984c-33.174,0-61.451,26.816-61.451,59.984v59.984    H224.13c-8.282,0-14.996,6.714-14.996,14.996v42.65c-41.798-2.5-79.671-8.423-107.821-17.078    c-28.276-8.695-61.384,3.855-73.232,36.442C16.548,228.795,2.932,297.686,0.419,362.943    C-2.838,447.508,12.9,496.716,47.198,509.198c17.365,6.319,38.054,1.42,61.494-14.563c15.737-10.73,33.072-26.62,51.624-47.299    c6.4,2.335,13.306,3.613,20.505,3.613c33.075,0,59.984-26.909,59.984-59.984c0-0.005,0-0.01,0-0.014    c9.095-1.256,21.243-1.261,30.393,0.038c0.013,33.064,26.916,59.96,59.983,59.96c7.199,0,14.104-1.277,20.505-3.613    c18.552,20.68,35.886,36.569,51.623,47.299c18.332,12.5,40.712,22.126,61.494,14.563    C499.1,496.715,514.837,447.508,511.58,362.943z M238.926,149.687l29.125,0.2v29.272c-9.378,0.164-18.697-0.027-29.125-0.232    V149.687z M180.821,420.957c-16.538,0-29.992-13.454-29.992-29.992c0-16.538,13.454-29.992,29.992-29.992    s29.992,13.454,29.992,29.992C210.813,407.502,197.358,420.957,180.821,420.957z M331.18,420.957    c-16.538,0-29.992-13.454-29.992-29.992c0-16.538,13.454-29.992,29.992-29.992c16.538,0,29.992,13.454,29.992,29.992    C361.172,407.502,347.717,420.957,331.18,420.957z M476.126,445.062c-3.347,14.036-9.808,31.668-21.581,35.952    c-11.79,4.29-38.173-7.266-77.984-50.89c9.089-10.517,14.604-24.203,14.604-39.159c0-33.075-26.909-59.984-59.984-59.984    c-22.5,0-42.136,12.46-52.399,30.835c-14.052-2.384-31.457-2.391-45.585-0.041c-10.269-18.352-29.892-30.794-52.375-30.794    c-33.075,0-59.984,26.909-59.984,59.984c0,14.958,5.517,28.643,14.604,39.16c-39.811,43.624-66.196,55.183-77.985,50.89    c-11.773-4.285-18.234-21.916-21.581-35.952c-4.846-20.322-6.743-48.319-5.485-80.964c2.309-59.953,14.97-126.771,25.876-156.737    c6.047-16.613,22.129-22.366,36.233-18.03c47.739,14.679,111.115,19.744,162.024,19.744c62.501,0,121.799-7.317,162.688-20.074    c15.7-4.898,32.246,2.177,37.675,16.109c10.666,27.403,24.303,96.139,26.725,158.988    C482.868,396.744,480.972,424.741,476.126,445.062z"/>
	</g>
</g>
<g>
</g>
<g>
</g>
<g>
</g>
<g>
</g>
<g>
</g>
<g>
</g>
<g>
</g>
<g>
</g>
<g>
</g>
<g>
</g>
<g>
</g>
<g>
</g>
<g>
</g>
<g>
</g>
<g>
</g>
</svg>
