<?xml version="1.0" encoding="UTF-8" standalone="no"?>
<svg
   viewBox="0 0 170 170"
   version="1.1"
   id="svg40"
   sodipodi:docname="logosintjan.svg"
   inkscape:version="1.1.1 (3bf5ae0d25, 2021-09-20)"
   width="170"
   height="170"
   inkscape:export-filename="C:\Users\JK\Desktop\cordova\SintJanApp\res\icon\android\logosintjanxxxhdpi.png"
   inkscape:export-xdpi="122.88"
   inkscape:export-ydpi="122.88"
   xmlns:inkscape="http://www.inkscape.org/namespaces/inkscape"
   xmlns:sodipodi="http://sodipodi.sourceforge.net/DTD/sodipodi-0.dtd"
   xmlns="http://www.w3.org/2000/svg"
   xmlns:svg="http://www.w3.org/2000/svg">
  <sodipodi:namedview
     id="namedview42"
     pagecolor="#505050"
     bordercolor="#eeeeee"
     borderopacity="1"
     inkscape:pageshadow="0"
     inkscape:pageopacity="0"
     inkscape:pagecheckerboard="0"
     showgrid="false"
     inkscape:zoom="3.5650505"
     inkscape:cx="148.52525"
     inkscape:cy="66.338471"
     inkscape:window-width="1920"
     inkscape:window-height="1017"
     inkscape:window-x="-8"
     inkscape:window-y="-8"
     inkscape:window-maximized="1"
     inkscape:current-layer="svg40" />
  <defs
     id="defs4">
    <style
       id="style2">.cls-1,.cls-4{fill:#cf003d;}.cls-2{fill:#fff;}.cls-3{fill:none;stroke:#fff;stroke-width:3px;}.cls-3,.cls-4{fill-rule:evenodd;}</style>
  </defs>
  <rect
     style="fill:#cf003d;fill-opacity:1;stroke-width:0.964124"
     id="rect890"
     width="170"
     height="170"
     x="0"
     y="0"
     rx="0"
     ry="0"
     inkscape:export-filename="C:\Users\JK\Desktop\cordova\SintJanApp\res\icon\android\logosintjanxxxhdpi.png"
     inkscape:export-xdpi="108.42353"
     inkscape:export-ydpi="108.42353" />
  <path
     id="path8"
     class="cls-2"
     d="m 38.219312,37.409 v 3.808605 H 71.969243 V 37.409 Z m 79.449048,11.5098 -4.81053,1.339848 v 8.609401 H 98.287543 a 10.179979,10.18003 0 0 0 -3.419913,-0.539065 9.73998,9.7400289 0 0 0 -9.410131,6.150409 h -0.0586 a 38.479921,38.480114 0 0 0 0.378909,-5.560563 57.999881,58.000172 0 0 0 -9.308575,0.369142 v 2.839851 c 1.559997,0.100001 3.370147,0.321251 4.660144,0.531252 v 19.199276 a 24.799949,24.800074 0 0 0 -4.660144,0.750002 v 2.830087 h 9.519514 V 72.659105 c 0,-5.880018 3.149834,-10.320342 7.589825,-10.320343 3.479993,0 4.490231,2.19946 4.490231,5.939471 v 17.09966 H 102.8891 V 66.829009 a 11.539976,11.540034 0 0 0 -0.70117,-4.220715 h 10.70115 v 15.291061 c 0,5.720017 1.65937,8.000024 7.10936,8.000024 a 25.479948,25.480076 0 0 0 5.14062,-0.541018 v -4.089856 a 15.609968,15.610046 0 0 1 -3.64063,0.480471 c -2.99999,0 -3.80077,-1.170551 -3.80077,-5.560564 V 62.608294 h 7.4414 v -3.740245 h -7.4707 z m -66.990089,9.169949 c -8.079984,0 -12.779271,4.278997 -12.779271,10.209015 0,11.610034 16.468716,8.289946 16.468716,16.419971 0,4.440013 -3.619992,6.20119 -7.999983,6.20119 a 16.869965,16.87005 0 0 1 -3.738274,-0.48047 C 42.46946,89.04845 42.248288,87.44868 41.928289,85.678674 h -3.52929 v 8.560573 a 30.999936,31.000092 0 0 0 7.699203,0.91016 c 8.289982,0 13.371067,-4.650874 13.371067,-11.130894 0,-11.330033 -16.47067,-8.440025 -16.47067,-16.250048 0,-3.37001 2.519682,-5.619157 7.429672,-5.619157 a 16.439966,16.440049 0 0 1 2.999994,0.269532 46.449905,46.450138 0 0 0 0.640624,4.650405 h 3.609367 v -8.281274 a 36.719925,36.720109 0 0 0 -6.999985,-0.699222 z m 18.097619,0.734378 a 59.149879,59.150176 0 0 0 -6.306627,0.416016 v 2.839852 c 1.549996,0.100001 3.36843,0.319298 4.648427,0.529299 v 19.250057 a 24.689949,24.690073 0 0 0 -4.648427,0.750002 v 2.830087 h 9.458964 l 0.0098,-26.570391 a 59.149879,59.150176 0 0 0 -3.162103,-0.04492 z m -2.097652,37.234485 v 2.830087 a 23.909951,23.910071 0 0 0 4.650381,0.750002 V 122.4073 c 0,4.82001 -1.54945,6.00002 -4.439443,6.00002 a 12.449974,12.450037 0 0 1 -3.689447,-0.58985 v 4.27931 a 17.279965,17.280051 0 0 0 3.999992,0.43164 c 6.589986,0 8.999981,-3.79103 8.999981,-9.79104 V 99.637701 a 25.179948,25.180075 0 0 0 3.738279,-0.689455 v -2.890634 z m 26.191356,8.980498 a 26.939945,26.94008 0 0 0 -9.140611,1.43946 v 7.32033 h 2.939444 c 0.269999,-1.50001 0.530629,-3.00009 0.640629,-4.33009 a 18.759962,18.760056 0 0 1 4.91991,-0.64063 c 4.329991,0 5.669908,2.00071 5.669908,5.72072 v 2.00001 c -10.049979,0.06 -15.999967,3.63876 -15.999967,9.46877 0,4.22001 3.000854,6.57034 7.380845,6.57034 a 9.4799805,9.4800282 0 0 0 8.999981,-5.76955 h 0.0996 v 5.23048 h 16.820277 v -12.70121 c 0,-5.88001 3.15985,-10.31839 7.58983,-10.31839 3.48,0 4.5,2.19946 4.49999,5.93947 v 17.09966 h 4.80858 v -18.52935 c 0.09,-4.70001 -1.83889,-8.50002 -7.87888,-8.50002 a 9.73998,9.7400289 0 0 0 -9.41014,6.15041 39.939918,39.940119 0 0 0 0.36914,-5.56057 57.779881,57.780172 0 0 0 -9.29881,0.36915 v 2.83985 c 1.54999,0.1 3.37038,0.32125 4.65038,0.53125 v 19.17974 h -7.77147 v -14.6309 c 0,-5.30001 -2.18866,-8.87893 -9.888646,-8.87893 z m -41.880777,11.17972 v 3.81056 h 12.060522 v -3.81056 z m 46.910057,3.77931 v 0.48047 c 0,4.17001 -2.890694,8.44924 -7.220685,8.44924 -2.459995,0 -4.058582,-1.43945 -4.058582,-3.68946 0,-2.62001 2.459285,-5.24025 11.279267,-5.24025 z"
     style="stroke-width:1"
     inkscape:export-filename="C:\Users\JK\Desktop\cordova\SintJanApp\res\icon\android\logosintjanxxxhdpi.png"
     inkscape:export-xdpi="108.42353"
     inkscape:export-ydpi="108.42353" />
</svg>
