<svg width="296.77" height="296.77" xmlns="http://www.w3.org/2000/svg">
 <g>
  <title>Layer 1</title>
  <g id="Laag_2" data-name="Laag 2">
   <g id="Laag_1-2" data-name="Laag 1">
    <polygon class="cls-1" points="0.449991911649704,185.28199017047882 37.99999237060547,232.2020035982132 297.2200012207031,194.91199505329132 296.9100036621094,63.181984066963196 28.379995346069336,63.181984066963196 0.449991911649704,185.28199017047882 " fill="#cf003d" id="svg_1"/>
    <path class="cls-2" d="m46.87999,163.56198a31,31 0 0 1 -7.7,-0.91l0,-8.56l3.53,0c0.32,1.77 0.54,3.37 0.7,4.76a16.87,16.87 0 0 0 3.74,0.48c4.38,0 8,-1.76 8,-6.2c0,-8.13 -16.47,-4.81 -16.47,-16.42c0,-5.93 4.7,-10.21 12.78,-10.21a36.72,36.72 0 0 1 7,0.7l0,8.28l-3.61,0a46.45,46.45 0 0 1 -0.64,-4.65a16.44,16.44 0 0 0 -3,-0.27c-4.91,0 -7.43,2.25 -7.43,5.62c0,7.81 16.47,4.92 16.47,16.25c0,6.48 -5.08,11.13 -13.37,11.13z" fill="#fff" id="svg_2"/>
    <path class="cls-2" d="m151.24999,121.34198l0,23.1c0,6 -2.41,9.79 -9,9.79a17.28,17.28 0 0 1 -4,-0.43l0,-4.28a12.45,12.45 0 0 0 3.69,0.59c2.89,0 4.44,-1.18 4.44,-6l0,-22.77a23.91,23.91 0 0 1 -4.65,-0.75l0,-2.83l13.26,0l0,2.89a25.18,25.18 0 0 1 -3.74,0.69z" fill="#fff" id="svg_3"/>
    <path class="cls-2" d="m72.71999,127.28198a59.15,59.15 0 0 0 -9.47,0.37l0,2.84c1.55,0.1 3.37,0.32 4.65,0.53l0,19.25a24.69,24.69 0 0 0 -4.65,0.75l0,2.83l9.46,0l0.01,-26.57z" fill="#fff" id="svg_4"/>
    <path class="cls-2" d="m118.44999,117.33198l-4.81,1.34l0,8.61l-14.57,0a10.18,10.18 0 0 0 -3.42,-0.54a9.74,9.74 0 0 0 -9.41,6.15l-0.06,0a38.48,38.48 0 0 0 0.38,-5.56a58,58 0 0 0 -9.31,0.37l0,2.84c1.56,0.1 3.37,0.32 4.66,0.53l0,19.2a24.8,24.8 0 0 0 -4.66,0.75l0,2.83l9.52,0l0,-12.78c0,-5.88 3.15,-10.32 7.59,-10.32c3.48,0 4.49,2.2 4.49,5.94l0,17.1l4.82,0l0,-18.55a11.54,11.54 0 0 0 -0.7,-4.22l10.7,0l0,15.29c0,5.72 1.66,8 7.11,8a25.48,25.48 0 0 0 5.14,-0.54l0,-4.09a15.61,15.61 0 0 1 -3.64,0.48c-3,0 -3.8,-1.17 -3.8,-5.56l0,-13.58l7.44,0l0,-3.74l-7.47,0l0,-9.95z" fill="#fff" id="svg_5"/>
    <path class="cls-2" d="m199.26999,126.74198a9.74,9.74 0 0 0 -9.41,6.15l0,0a39.94,39.94 0 0 0 0.37,-5.56a57.78,57.78 0 0 0 -9.3,0.37l0,2.84c1.55,0.1 3.37,0.32 4.65,0.53l0,19.18l-7.77,0l0,-14.63c0,-5.3 -2.19,-8.88 -9.89,-8.88a26.94,26.94 0 0 0 -9.14,1.44l0,7.32l2.94,0c0.27,-1.5 0.53,-3 0.64,-4.33a18.76,18.76 0 0 1 4.92,-0.64c4.33,0 5.67,2 5.67,5.72l0,2c-10.05,0.06 -16,3.64 -16,9.47c0,4.22 3,6.57 7.38,6.57a9.48,9.48 0 0 0 9,-5.77l0.1,0l0,5.23l16.82,0l0,-12.7c0,-5.88 3.16,-10.32 7.59,-10.32c3.48,0 4.5,2.2 4.5,5.94l0,17.1l4.81,0l0,-18.53c0.09,-4.7 -1.84,-8.5 -7.88,-8.5z" fill="#fff" id="svg_6"/>
    <path class="cls-1" d="m172.94999,142.18198c0,4.17 -2.89,8.45 -7.22,8.45c-2.46,0 -4.06,-1.44 -4.06,-3.69c0,-2.62 2.46,-5.24 11.28,-5.24l0,0.48z" fill="#cf003d" id="svg_7"/>
    <rect class="cls-2" x="38.99999" y="105.82198" width="33.75" height="3.81" fill="#fff" id="svg_8"/>
    <path class="cls-3" d="m225.26999,80.06198c-0.29,1.05 0.51,1 0.64,1.65c-1.09,0 -1.1,-1.08 -2.28,-1c3.78,4.24 4.93,11.94 6,21.07c0.47,4.1 2.09,8.22 2.48,11.84c0.43,4.07 -1.37,8.43 0.18,11.48c-0.84,2.67 -0.59,4.45 -1.41,7.2l3.28,0c1,-0.08 -0.84,0.94 0.32,1c-2.48,2.4 -2.07,6.56 -3.1,11.11c-1.35,6 -4.24,11.33 -5.13,17c-0.3,1 0.84,0.68 1,1.32c-1.44,4.51 -2,9.93 -3.47,14.39a2.27,2.27 0 0 1 -0.64,-1c-0.4,5 -3.62,7.14 -4.09,12.08c6,1.14 6,-6.72 10.28,-8.4c-2.8,-6.76 3.12,-10.62 4.12,-16.62c1.61,0.09 2.5,-0.55 4.27,-0.28c2.95,-3.62 0.84,-12.42 4.46,-15.36c2.4,4.79 3.74,10.61 6,15.5a9.37,9.37 0 0 1 4.6,-0.6c3.66,4.31 6.47,9.45 9.33,14.55c-1.52,3.35 1.25,3.7 2.53,6.92c1.21,3 0.8,7.15 5.17,6.63c2.34,-3.41 -0.93,-7.62 -1.5,-11.17c-0.63,-0.15 -0.59,-1 -1.63,-0.68c-1.06,-2.94 -1.84,-5.65 -2.85,-8.57c-0.91,-2.62 -2.95,-5.39 -3.5,-7.91c-0.12,-0.55 0.55,-0.75 0.34,-1.31c-1.88,-5.11 -5.43,-9.84 -5.69,-16.47c-2.2,-3.69 -1.43,-10.28 -5.43,-12.21c0.11,-1.72 -1.06,-2.2 -0.93,-4c4.43,-0.75 6.58,-5.44 2.4,-8.17c0,-15 4,-30.36 8.73,-41.87c-1,0.08 -0.93,1.25 -2,1.28a3,3 0 0 1 -0.62,-2.3c-1.1,-0.35 -0.53,1 -0.68,1.63c-0.72,-0.48 -0.43,-2 -0.95,-2.64c-1.12,0.16 -0.52,1.58 -0.36,2.29c-1.22,-0.42 -0.54,-2.7 -1.93,-3c0,0.87 -0.14,1.87 0.3,2.3c-0.4,0.86 -1.1,-1.56 -2,-0.35c6.24,6.75 -4.06,17.21 -5.57,25.18c-1.43,-5.83 -10.59,-5.29 -9.87,2.17c-0.58,-7.71 -9.4,-17.09 -2.66,-23c-1.71,-0.72 -2.13,0.58 -3.29,1.27a7.15,7.15 0 0 0 0.36,-2.95c-1,0.19 -0.66,1.76 -1.66,1.95c-0.77,-0.55 -0.48,-2.13 -1.61,-2.32c0.14,2.68 0.24,1.49 -1.94,0.37z" fill="none" stroke="#fff" stroke-width="3px" fill-rule="evenodd" id="svg_9"/>
    <path class="cls-4" d="m225.26999,80.06198c-0.29,1.05 0.51,1 0.64,1.65c-1.09,0 -1.1,-1.08 -2.28,-1c3.78,4.24 4.93,11.94 6,21.07c0.47,4.1 2.09,8.22 2.48,11.84c0.43,4.07 -1.37,8.43 0.18,11.48c-0.84,2.67 -0.59,4.45 -1.41,7.2l3.28,0c1,-0.08 -0.84,0.94 0.32,1c-2.48,2.4 -2.07,6.56 -3.1,11.11c-1.35,6 -4.24,11.33 -5.13,17c-0.3,1 0.84,0.68 1,1.32c-1.44,4.51 -2,9.93 -3.47,14.39c-0.3,-0.24 -0.38,0.1 -0.53,-0.29c-0.4,5 -3.73,6.44 -4.2,11.38c6,1.14 6,-6.72 10.28,-8.4c-2.8,-6.77 3.12,-10.63 4.12,-16.63c1.61,0.09 2.5,-0.55 4.27,-0.28c2.95,-3.62 0.84,-12.42 4.46,-15.36c2.4,4.79 3.74,10.61 6,15.5a9.37,9.37 0 0 1 4.6,-0.6c3.66,4.31 6.47,9.45 9.33,14.55c-1.52,3.35 1.25,3.7 2.53,6.92c1.21,3 0.8,7.15 5.17,6.63c2.34,-3.41 -0.93,-7.62 -1.5,-11.17c-0.63,-0.15 -0.59,-1 -1.63,-0.68c-1.06,-2.94 -1.84,-5.65 -2.85,-8.57c-0.91,-2.62 -2.95,-5.39 -3.5,-7.91c-0.12,-0.55 0.55,-0.75 0.34,-1.31c-1.88,-5.11 -5.43,-9.84 -5.69,-16.47c-2.2,-3.69 -1.43,-10.28 -5.43,-12.21c0.11,-1.72 -1.06,-2.2 -0.93,-4c4.43,-0.75 6.58,-5.44 2.4,-8.17c0,-15 4,-30.36 8.73,-41.87c-1,0.08 -0.93,1.25 -2,1.28a3,3 0 0 1 -0.62,-2.3c-1.1,-0.35 -0.53,1 -0.68,1.63c-0.72,-0.48 -0.43,-2 -0.95,-2.64c-1.12,0.16 -0.52,1.58 -0.36,2.29c-1.22,-0.42 -0.54,-2.7 -1.93,-3c0,0.87 -0.14,1.87 0.3,2.3c-0.4,0.86 -1.1,-1.56 -2,-0.35c6.24,6.75 -4.06,17.21 -5.57,25.18c-1.43,-5.83 -10.59,-5.29 -9.87,2.17c-0.58,-7.71 -9.4,-17.09 -2.66,-23c-1.71,-0.72 -2.13,0.58 -3.29,1.27a7.15,7.15 0 0 0 0.36,-2.95c-1,0.19 -0.66,1.76 -1.66,1.95c-0.77,-0.55 -0.48,-2.13 -1.61,-2.32c0.14,2.68 0.24,1.49 -1.94,0.37z" fill="#cf003d" fill-rule="evenodd" id="svg_10"/>
    <path class="cls-2" d="m67.04999,191.83198a25.3,25.3 0 0 0 2.56,0.31l-0.16,1.04a33.34,33.34 0 0 1 -4.63,0.22l4,-21.24c-0.69,-0.13 -1.72,-0.25 -2.6,-0.32l0.22,-1.06a31.8,31.8 0 0 1 4.66,-0.22l-4.05,21.27z" fill="#fff" id="svg_11"/>
    <path class="cls-2" d="m75.11999,186.23198a14.59,14.59 0 0 0 -0.19,2.22c0,2.88 1,3.57 3.72,3.57a11,11 0 0 0 4.29,-0.91l0,1.66a13.16,13.16 0 0 1 -5,0.91c-3.28,0 -5,-1.29 -5,-4.88c0,-5.7 2.94,-11.17 8.35,-11.17c2.91,0 4.22,1.5 4.22,3.35c-0.06,3.06 -3.32,4.97 -10.39,5.25zm5.85,-7.05c-2.82,0 -4.69,2.38 -5.51,5.41c5.63,-0.22 7.92,-1.37 7.92,-3.37c0,-1.34 -0.93,-2.04 -2.41,-2.04z" fill="#fff" id="svg_12"/>
    <path class="cls-2" d="m89.84999,186.23198a16,16 0 0 0 -0.19,2.22c0,2.88 1,3.57 3.72,3.57a11,11 0 0 0 4.29,-0.91l0,1.66a13.12,13.12 0 0 1 -5,0.91c-3.28,0 -5,-1.29 -5,-4.88c0,-5.7 2.94,-11.17 8.35,-11.17c2.91,0 4.22,1.5 4.22,3.35c-0.07,3.06 -3.32,4.97 -10.39,5.25zm5.85,-7.05c-2.82,0 -4.69,2.38 -5.51,5.41c5.63,-0.22 7.92,-1.37 7.92,-3.37c0,-1.34 -0.97,-2.04 -2.41,-2.04z" fill="#fff" id="svg_13"/>
    <path class="cls-2" d="m115.24999,172.37198a10.13,10.13 0 0 0 -2.47,-0.31c-2.54,0 -4,1.44 -4.6,4.72l-0.19,1.1l4.69,0l-0.31,1.56l-4.69,0l-2.85,14.92c-1,5.17 -3.28,7.14 -7,7.14a12.16,12.16 0 0 1 -2.65,-0.29l0.5,-1.72a9,9 0 0 0 2.47,0.35c2.53,0 4,-1.35 4.72,-5.38l2.88,-15l-3.5,0l0.34,-1.56l3.47,0l0.19,-1.06c0.78,-4.32 3.1,-6.39 6.88,-6.39a12.39,12.39 0 0 1 2.63,0.29l-0.51,1.63z" fill="#fff" id="svg_14"/>
    <path class="cls-2" d="m122.87999,179.44198l-4.63,0l-1.69,8.92c-0.53,2.78 -0.15,3.53 1.57,3.53a9.54,9.54 0 0 0 2.31,-0.25l-0.06,1.72a15.45,15.45 0 0 1 -2.69,0.28c-3.1,0 -3.82,-1.43 -3.19,-4.84l1.81,-9.36l-3,0l0.31,-1.56l3,0l1,-5.26l2,-0.5l-1.1,5.76l4.63,0l-0.27,1.56z" fill="#fff" id="svg_15"/>
    <rect class="cls-2" x="126.03999" y="137.92198" width="12.06" height="3.81" fill="#fff" id="svg_16"/>
   </g>
  </g>
  <rect stroke="null" id="svg_17" height="66.81835" width="363.63731" y="-2.47552" x="-39.79732" fill="#cf003d"/>
  <rect id="svg_18" height="104.09118" width="383.18282" y="208.43412" x="-17.07" stroke="null" fill="#cf003d"/>
  <rect id="svg_19" height="207.27327" width="45.00012" y="36.61549" x="-12.06998" stroke="null" fill="#cf003d"/>
  <rect id="svg_20" height="46.8183" width="128.18215" y="193.88863" x="190.20327" stroke="null" fill="#cf003d"/>
 </g>

</svg>